<?xml version="1.0" encoding="UTF-8"?> <svg xmlns="http://www.w3.org/2000/svg" id="Layer_1" data-name="Layer 1" viewBox="0 0 1167.94 398.3"><defs><style>.cls-1{fill:#737373;}.cls-2{fill:#38b6ff;}.cls-3{fill:#9d9fa0;}</style></defs><title>automatorr</title><path class="cls-1" d="M660,688.27a64,64,0,0,0-61.32,67.25c1.6,35,31.77,62.35,66.92,60.72a64.12,64.12,0,0,0,61-66.94C725,714.13,695,686.62,660,688.27m43.47,29.22c1.53,1.79,2.85,3.74,4.23,5.65,1.06,1.48.93,2.36-1.18,2.44-6.75.26-13.51,0.6-20.26,0.92-1.06,0-2.15.05-2.48-1.25-2.18-8.64-5-17-9.49-24.94a50.68,50.68,0,0,1,29.17,17.18m-54.68,8.71c1.41-8.33,3.25-16.52,7.66-23.87,2.71-4.52,4.63-4.64,7.72-.43,5.08,6.91,7.66,14.9,9.84,23.06,0.49,1.85-.43,2.13-1.87,2.19-3.59.15-7.18,0.33-10.77,0.49h0l-10.46.49c-1.37.07-2.45,0-2.13-1.94m-33.91,1.7c6.8-13,17.18-21.76,31-26.63a2.77,2.77,0,0,1,.28.92,91.41,91.41,0,0,0-7.06,25c-0.18,1.3-1.12,1.55-2.23,1.6q-10.28.47-20.55,1c-1.43.07-2.32-.25-1.48-1.86m-3.81,39.27a54.08,54.08,0,0,1-1.15-24.94,2.6,2.6,0,0,1,2.86-2.46q11.37-.42,22.72-1c1.85-.1,2.64.54,2.54,2.42a122.89,122.89,0,0,0,1.15,24.52c0.29,1.9-.5,2.56-2.33,2.61-3.79.1-7.58,0.33-11.36,0.51s-7.58.28-11.36,0.57a2.56,2.56,0,0,1-3.07-2.18M631.68,796a54.8,54.8,0,0,1-13.84-14.23c-1.32-1.94-1.14-2.78,1.45-2.86,6.45-.19,12.89-0.5,19.33-0.9,2-.13,2.85.61,3.32,2.58a78.14,78.14,0,0,0,8.69,22.21,9.79,9.79,0,0,1,.55,1.78A51.83,51.83,0,0,1,631.68,796m44.91-17.84c-1.55,8.57-3.28,17.1-8.06,24.6-2.44,3.83-4.18,3.9-7,.31-5.45-7-8-15.33-10.32-23.75-0.38-1.42.33-1.85,1.56-1.91l22.08-1c1.24-.06,2,0.31,1.71,1.78m-1.42-11.66q-11.82.44-23.63,1.11c-2,.11-2.74-0.64-3-2.51a138.9,138.9,0,0,1-1.15-24.2c0.08-2.1,1-2.85,3-2.88,3.89-.08,7.77-0.33,11.66-0.51s8-.3,12-0.58c1.83-.13,2.59.62,2.82,2.35A143.17,143.17,0,0,1,678,763.8c-0.08,2-.92,2.63-2.83,2.7m35,10.76A53.45,53.45,0,0,1,680.08,803a2.55,2.55,0,0,1-.81,0,1.71,1.71,0,0,1,.22-1.79,76.6,76.6,0,0,0,6.41-22.33c0.33-2.25,1.11-3.15,3.45-3.21,6.34-.15,12.68-0.5,19-0.85,2.08-.12,3,0.27,1.8,2.48m2.38-12.49c-7.58.24-15.16,0.63-22.72,1-1.88.1-2.63-.57-2.53-2.44a117.67,117.67,0,0,0-1.13-24.22c-0.34-2.19.56-2.91,2.66-2.94,3.68-.06,7.37-0.31,11.05-0.48h0c3.79-.18,7.59-0.27,11.36-0.57,1.81-.15,2.6.59,3.05,2.21a54.81,54.81,0,0,1,1.2,24.65c-0.3,1.69-.93,2.68-2.94,2.74" transform="translate(-416.03 -600.85)"></path><path class="cls-2" d="M802.34,956c-7.3,5.78-17.11,5.31-23.06-.61a19,19,0,0,1-1.93-24.46,3.16,3.16,0,0,0,0-4.27q-9.32-13.59-18.4-27.33c-1-1.43-1.7-2-3.58-1.64-4.78,1-9-.22-12-4.3-3.3-4.53-3.46-9.37-1.14-14.45,0.5-1.12.83-3,.26-3.85-10.06-15.24-20.26-30.4-30.41-45.54a8.24,8.24,0,0,0-.76-0.81l-15.81,7.18-2.77-8.36c20.91-8.84,35.72-23.39,44.47-43.83H747a90.94,90.94,0,0,1-28.49,39.12c-1.73,1.4-2,2.27-.65,4.19,10.06,14.81,20,29.73,30,44.55a4.27,4.27,0,0,0,3.35,1.54c9.7-1,18.47,9.33,12.36,19.22a3.4,3.4,0,0,0,.17,3c6.32,9.56,12.68,19.06,19.22,28.46,0.55,0.79,2.57,1.17,3.67.87,8.58-2.21,18.48,3.33,21.26,10.54,3,7.83,1.12,15.49-5.59,20.8" transform="translate(-416.03 -600.85)"></path><path class="cls-2" d="M668.4,662.73l-0.86,8.6c-6.5.39-12.84,0.52-19,1.59-20.71,3.59-37.4,13.9-50,30.47l-7.89-4.54c5.71-7.84,12.68-14.27,20.59-20.32-2.57-3.6-5.06-7.14-7.61-10.63C595.33,656.61,587,645.38,578.8,634c-1.48-2.06-3.06-2.54-5.5-2.36a12.75,12.75,0,0,1-12.91-8.59A12.24,12.24,0,0,1,565,609.23a12.57,12.57,0,0,1,14.92,0c4.57,3.32,6.23,10.44,3.38,16-1.07,2.09-.89,3.37.49,5.22,10.55,14.19,21,28.48,31.43,42.74,0.4,0.54.83,1.07,1.45,1.86a91,91,0,0,1,51.74-12.33" transform="translate(-416.03 -600.85)"></path><path class="cls-2" d="M862.36,630.55A19,19,0,0,1,838,633.1a3.14,3.14,0,0,0-4.27.09q-13.36,9.65-26.84,19.11c-1.4,1-2,1.74-1.54,3.61,1.14,4.75,0,9-4,12.1-4.44,3.41-9.27,3.69-14.42,1.51-1.14-.47-3-0.75-3.85-0.16-15,10.43-29.85,21-44.74,31.59a5.4,5.4,0,0,0-.79.78l2.43,5h-10.7q-15.93-23.57-45.17-32.45L685,665.4a79.4,79.4,0,0,1,18.78,7.09,90,90,0,0,1,27.7,22.23c1.43,1.68,2.32,1.89,4.19.55,14.54-10.45,29.21-20.73,43.76-31.17a4.34,4.34,0,0,0,1.46-3.39c-1.28-9.67,8.84-18.7,18.87-12.85a3.51,3.51,0,0,0,3-.26c9.36-6.56,18.72-13.16,27.93-19.95,0.78-.58,1.09-2.6.78-3.71-2.43-8.5,2.85-18.56,10-21.5,7.74-3.21,15.45-1.53,20.93,5,6,7.15,5.75,17,0,23.08" transform="translate(-416.03 -600.85)"></path><path class="cls-2" d="M675,992.92c-5.06,6.25-15.36,8.14-22.48,4.11-7.87-4.45-11-13.07-7.8-21.43A18.82,18.82,0,0,1,655.5,964.5c1-.42,2.42-1.75,2.4-2.64q-0.17-17.51-.82-35a4.84,4.84,0,0,0-2.1-3.12,12.37,12.37,0,0,1-.73-20.38,4.88,4.88,0,0,0,2.19-4.6c-0.38-12.62-.57-25.23-1-37.85l-0.08-7.59c-0.19-4.11-.36-7.8-0.55-11.66a80.85,80.85,0,0,1-29.5-7.74l4.06-7.45c0.55,0.2,1.17.45,1.86,0.72,14.72,5.73,29.84,7.8,45.41,5l2.71,8.16-18.45,2.48c0.34,13.91.68,28.1,1,42.29,0.06,2.67.19,5.32,0.16,8,0,4.29-.13,7.81,5.48,9.69,4.69,1.56,6.58,6.65,6.15,11.81a10.92,10.92,0,0,1-8.19,10.11c-2.09.64-2.65,1.66-2.59,3.72q0.55,16.13.85,32.29c0,2.14.71,3.16,2.83,3.95,11.7,4.37,15.93,18.93,8.37,28.27" transform="translate(-416.03 -600.85)"></path><path class="cls-2" d="M583.38,768.59a122.69,122.69,0,0,1-1.71-14.42,85.16,85.16,0,0,1,7-35c0.27-.63.5-1.19,0.73-1.71l-7.37-4.24a80.71,80.71,0,0,0-8.43,29.15l-11.67.25-7.59-.14c-12.62.11-25.23,0-37.86,0a4.86,4.86,0,0,1-4.54-2.32,12.37,12.37,0,0,0-20.39.21,4.82,4.82,0,0,1-3.17,2q-17.51.19-35-.08c-0.91,0-2.19-1.43-2.59-2.48A18.8,18.8,0,0,0,440,728.82c-8.28-3.43-17-.52-21.64,7.24-4.21,7-2.59,17.35,3.52,22.57,9.14,7.81,23.81,4,28.48-7.62,0.84-2.1,1.89-2.74,4-2.73q16.15,0.13,32.3,0c2.06,0,3.06.56,3.65,2.68a10.91,10.91,0,0,0,9.9,8.45c5.14,0.55,10.28-1.2,12-5.85,2-5.55,5.55-5.37,9.83-5.22,2.67,0.09,5.33,0,8,0l42.32,0.09,0.29,2.69a91.16,91.16,0,0,0,13.71,49.25c-0.77.63-1.28,1.07-1.82,1.48-14,10.83-28,21.62-41.9,32.54-1.83,1.43-3.08,1.65-5.21.63-5.62-2.7-12.69-.85-15.9,3.8a12.59,12.59,0,0,0,.38,14.92,12.24,12.24,0,0,0,14,4.21,12.74,12.74,0,0,0,8.27-13.11c-0.24-2.44.19-4,2.21-5.57,11.13-8.48,22.14-17.11,33.2-25.66,3.43-2.65,6.91-5.22,10.43-7.89,6.23,7.72,12.81,14.48,20.72,20l4.36-8c-16.83-12.2-27.55-28.58-31.66-49.15" transform="translate(-416.03 -600.85)"></path><path class="cls-1" d="M849.09,770.32H820.76l-4.54,13.4H796.87l27.46-75.89h21.41l27.46,75.89H853.63Zm-14.16-42.06-9.3,27.78h18.7Z" transform="translate(-416.03 -600.85)"></path><path class="cls-1" d="M883.37,707.84h18.49v45.41c0,9,4.43,14.16,13.19,14.16s13.41-5.19,13.41-14.16V707.84h18.49v45.3c0,21-14.7,31.35-32.22,31.35s-31.35-10.38-31.35-31.35v-45.3Z" transform="translate(-416.03 -600.85)"></path><polygon class="cls-1" points="541.94 106.99 600.64 106.99 600.64 121.8 580.53 121.8 580.53 182.88 562.05 182.88 562.05 121.8 541.94 121.8 541.94 106.99"></polygon><path class="cls-1" d="M1064,784.49c-21.52,0-39-16.11-39-38.92s17.51-38.81,39-38.81,38.81,16,38.81,38.81-17.3,38.92-38.81,38.92m0-16.87c12.11,0,20-8.76,20-22.05,0-13.51-7.89-22.05-20-22.05-12.33,0-20.11,8.54-20.11,22.05,0,13.3,7.78,22.05,20.11,22.05" transform="translate(-416.03 -600.85)"></path><polygon class="cls-1" points="699.25 106.99 721.09 106.99 742.38 159.53 763.47 106.99 785.2 106.99 785.2 182.88 766.71 182.88 766.71 137.37 749.74 182.88 734.82 182.88 717.74 137.26 717.74 182.88 699.25 182.88 699.25 106.99"></polygon><path class="cls-1" d="M1263.94,770.32h-28.32l-4.54,13.4h-19.35l27.46-75.89h21.41L1288,783.73h-19.57Zm-14.16-42.06-9.3,27.78h18.7Z" transform="translate(-416.03 -600.85)"></path><polygon class="cls-1" points="878.41 106.99 937.11 106.99 937.11 121.8 917 121.8 917 182.88 898.51 182.88 898.51 121.8 878.41 121.8 878.41 106.99"></polygon><path class="cls-1" d="M1400.5,784.49c-21.52,0-39-16.11-39-38.92s17.51-38.81,39-38.81,38.81,16,38.81,38.81-17.3,38.92-38.81,38.92m0-16.87c12.11,0,20-8.76,20-22.05,0-13.51-7.89-22.05-20-22.05-12.33,0-20.11,8.54-20.11,22.05,0,13.3,7.78,22.05,20.11,22.05" transform="translate(-416.03 -600.85)"></path><path class="cls-1" d="M1482.77,707.84c18.59,0,27.89,10.71,27.89,23.89,0,9.51-5.19,18.49-16.87,21.95l17.51,30.05h-20.86l-15.78-28.65h-4.43v28.65h-18.49V707.84h31Zm-1.08,15.35h-11.46V742h11.46c6.92,0,10.16-3.57,10.16-9.51,0-5.62-3.24-9.3-10.16-9.3" transform="translate(-416.03 -600.85)"></path><path class="cls-1" d="M1555.43,707.84c18.59,0,27.89,10.71,27.89,23.89,0,9.51-5.19,18.49-16.87,21.95L1584,783.73h-20.86l-15.78-28.65h-4.43v28.65H1524.4V707.84h31Zm-1.08,15.35h-11.46V742h11.46c6.92,0,10.16-3.57,10.16-9.51,0-5.62-3.24-9.3-10.16-9.3" transform="translate(-416.03 -600.85)"></path><path class="cls-3" d="M1512.46,822.9a2.56,2.56,0,1,1,2.77-2.52,2.59,2.59,0,0,1-2.77,2.52" transform="translate(-416.03 -600.85)"></path><path class="cls-3" d="M1527.45,803.2c4.58,0,8,2.58,9.14,6.75h-5.16a4.24,4.24,0,0,0-4-2.47c-2.88,0-4.86,2.14-4.86,5.54s2,5.54,4.86,5.54a4.24,4.24,0,0,0,4-2.47h5.16c-1.1,4.17-4.56,6.72-9.14,6.72-5.68,0-9.69-4-9.69-9.8s4-9.83,9.69-9.83" transform="translate(-416.03 -600.85)"></path><path class="cls-3" d="M1549.14,822.87A9.86,9.86,0,1,1,1559,813a9.69,9.69,0,0,1-9.85,9.88m0-4.28c3.07,0,5.08-2.22,5.08-5.6s-2-5.6-5.08-5.6-5.1,2.17-5.1,5.6,2,5.6,5.1,5.6" transform="translate(-416.03 -600.85)"></path><polygon class="cls-3" points="1146.12 202.57 1151.67 202.57 1157.07 215.91 1162.42 202.57 1167.94 202.57 1167.94 221.83 1163.25 221.83 1163.25 210.28 1158.94 221.83 1155.15 221.83 1150.82 210.25 1150.82 221.83 1146.12 221.83 1146.12 202.57"></polygon><path class="cls-3" d="M1507.91,822.82L827.8,819a15.71,15.71,0,1,0,0,7.66Z" transform="translate(-416.03 -600.85)"></path></svg> 